<svg xmlns="http://www.w3.org/2000/svg" viewBox="-61 -309 8641 2780" role="img" aria-label="Ascension">
  <path fill="currentColor" d="M30 2409 200 649H797L964 2409H631L606 2125H394L372 2409ZM419 1844H579L502 949H486Z M1530 2425Q1289 2425 1182.5 2305Q1076 2185 1076 1923V1751H1424V1971Q1424 2032 1442.5 2066.5Q1461 2101 1507 2101Q1555 2101 1573.5 2073Q1592 2045 1592 1981Q1592 1900 1576 1845.5Q1560 1791 1520.5 1741.5Q1481 1692 1411 1626L1253 1476Q1076 1309 1076 1094Q1076 869 1180.5 751Q1285 633 1483 633Q1725 633 1826.5 762Q1928 891 1928 1154H1570V1033Q1570 997 1549.5 977Q1529 957 1494 957Q1452 957 1432.5 980.5Q1413 1004 1413 1041Q1413 1078 1433 1121Q1453 1164 1512 1220L1715 1415Q1776 1473 1827 1537.5Q1878 1602 1909 1687.5Q1940 1773 1940 1896Q1940 2144 1848.5 2284.5Q1757 2425 1530 2425Z M2507 2425Q2316 2425 2199.5 2306Q2083 2187 2083 1973V1161Q2083 905 2184.5 769Q2286 633 2515 633Q2640 633 2737.5 679Q2835 725 2891 816.5Q2947 908 2947 1047V1351H2597V1091Q2597 1012 2577 984.5Q2557 957 2515 957Q2466 957 2449 992.5Q2432 1028 2432 1087V1968Q2432 2041 2453.5 2071Q2475 2101 2515 2101Q2560 2101 2578.5 2064Q2597 2027 2597 1968V1651H2951V1984Q2951 2216 2834 2320.5Q2717 2425 2507 2425Z M3108 2409V649H3812V989H3466V1332H3798V1663H3466V2066H3835V2409Z M3991 2409V649H4353L4515 1492V649H4855V2409H4511L4335 1529V2409Z M5469 2425Q5228 2425 5121.5 2305Q5015 2185 5015 1923V1751H5363V1971Q5363 2032 5381.5 2066.5Q5400 2101 5446 2101Q5494 2101 5512.5 2073Q5531 2045 5531 1981Q5531 1900 5515 1845.5Q5499 1791 5459.5 1741.5Q5420 1692 5350 1626L5192 1476Q5015 1309 5015 1094Q5015 869 5119.5 751Q5224 633 5422 633Q5664 633 5765.5 762Q5867 891 5867 1154H5509V1033Q5509 997 5488.5 977Q5468 957 5433 957Q5391 957 5371.5 980.5Q5352 1004 5352 1041Q5352 1078 5372 1121Q5392 1164 5451 1220L5654 1415Q5715 1473 5766 1537.5Q5817 1602 5848 1687.5Q5879 1773 5879 1896Q5879 2144 5787.5 2284.5Q5696 2425 5469 2425Z M6020 2409V649H6360V2409Z M6960 2425Q6749 2425 6637.5 2297.5Q6526 2170 6526 1929V1093Q6526 867 6636.5 750Q6747 633 6960 633Q7173 633 7283.5 750Q7394 867 7394 1093V1929Q7394 2170 7282.5 2297.5Q7171 2425 6960 2425ZM6963 2101Q7043 2101 7043 1946V1087Q7043 957 6965 957Q6877 957 6877 1090V1948Q6877 2030 6897 2065.5Q6917 2101 6963 2101Z M7576 2409V649H7938L8100 1492V649H8440V2409H8096L7920 1529V2409Z"/>
  <path fill="currentColor" d="M5697,166.2 L6190,-247.9 L6683,166.2 L6683,479 L6190,64.9 L5697,479 Z"/>
</svg>
